<svg xmlns="http://www.w3.org/2000/svg" viewBox="0 0 131.28 178.59"><title>Recurso 2</title><g id="Capa_2" data-name="Capa 2"><g id="OBJECTS"><text transform="translate(52.09 32.86)" style="font-size:42.12582015991211px;fill:#fff;font-family:GeoOblique, Geo">DDOS<tspan style="font-size:18px"><tspan x="24.94" y="19">studios</tspan></tspan></text><path d="M92,160.49h24.13a7.71,7.71,0,0,0,7.71-7.71V67" style="fill:none;stroke:#fff;stroke-linecap:round;stroke-linejoin:round;stroke-width:4px"/><line x1="4.11" y1="143.22" x2="4.11" y2="37.3" style="fill:none;stroke:#fff;stroke-linecap:round;stroke-linejoin:round;stroke-width:4px"/><path d="M68.2,152.28H6.09a4.09,4.09,0,0,0,0,8.18H68.2Z" style="fill:#fff;stroke:#fff;stroke-linecap:round;stroke-linejoin:round;stroke-width:4px"/><path d="M52.84,39.55H74.53V55.81l-6,5.62a9.66,9.66,0,0,0-2.58,10.18l11,32.59,14.81,4.47v13.55H89a4.56,4.56,0,0,0-4.55,4.56v33.68L50.46,148.41V44.35A6,6,0,0,1,52.84,39.55Z" style="fill:#f0f0f0;stroke:#1d1e1c;stroke-linecap:square;stroke-linejoin:round;stroke-width:3px"/><path d="M74.53,50.38v5.43l-6,5.62a9.66,9.66,0,0,0-2.58,10.18l11,32.59,14.81,4.47v2H26.89V50.38Z" style="fill:#9c9ea0;stroke:#fff;stroke-linecap:square;stroke-linejoin:round;stroke-width:3px"/><path d="M84.41,126.78v33.71H50.46v-40H91.69v1.72H89A4.56,4.56,0,0,0,84.41,126.78Z" style="fill:#9c9ea0;stroke:#fff;stroke-linecap:square;stroke-linejoin:round;stroke-width:3px"/><rect x="57.75" y="108.67" width="33.94" height="13.55" transform="translate(149.44 230.89) rotate(180)" style="fill:#9c9ea0;stroke:#fff;stroke-linecap:square;stroke-linejoin:round;stroke-width:3px"/><rect x="40.59" y="39.55" width="33.94" height="16.26" style="fill:#9c9ea0;stroke:#fff;stroke-linecap:square;stroke-linejoin:round;stroke-width:3px"/><path d="M50.46,126.78v33.71H24.63a8.11,8.11,0,0,1-8.11-8.12V48.13a8.58,8.58,0,0,1,8.58-8.58H40.59V55.81l-6,5.62A9.66,9.66,0,0,0,32,71.61l11,32.59,14.82,4.47v13.55H55A4.56,4.56,0,0,0,50.46,126.78Z" style="fill:#f0f0f0;stroke:#1d1e1c;stroke-linecap:square;stroke-linejoin:round;stroke-width:3px"/><path d="M50.46,126.79V160.5H24.63a8.11,8.11,0,0,1-8.11-8.11V48.14a8.58,8.58,0,0,1,8.58-8.58H40.59V55.82l-6,5.62A9.67,9.67,0,0,0,32,71.62l11,32.59,14.82,4.47v13.56H55A4.56,4.56,0,0,0,50.46,126.79Z" style="fill:#565558;stroke:#fff;stroke-linecap:round;stroke-linejoin:round;stroke-width:3px"/><line x1="84.41" y1="126.78" x2="50.46" y2="126.78" style="fill:none;stroke:#fff;stroke-linecap:round;stroke-linejoin:round;stroke-width:3px"/><path d="M70.62,96.38l-6.9-21.26a2.52,2.52,0,0,0-2.4-1.74H41.94a2.53,2.53,0,0,0-2.41,3.3L46.4,97.94a2.52,2.52,0,0,0,2.4,1.74H68.22A2.52,2.52,0,0,0,70.62,96.38Z" style="fill:#cdd0d1;stroke:#fff;stroke-linecap:square;stroke-linejoin:round;stroke-width:2px"/><path d="M69,98.79,61.89,77a1.8,1.8,0,0,0-1.72-1.24H40.27a2.67,2.67,0,0,0-.85.16,2.53,2.53,0,0,1,2.52-2.57H61.32a2.52,2.52,0,0,1,2.4,1.74l6.9,21.26a2.52,2.52,0,0,1-1.56,3.14A2.35,2.35,0,0,0,69,98.79Z" style="fill:none;stroke:#fff;stroke-linecap:square;stroke-linejoin:round;stroke-width:2px"/><line x1="64.65" y1="68.86" x2="32.18" y2="68.86" style="fill:none;stroke:#fff;stroke-linecap:square;stroke-linejoin:round;stroke-width:3px"/><line x1="76.88" y1="104.2" x2="43.27" y2="104.2" style="fill:none;stroke:#fff;stroke-linecap:round;stroke-linejoin:round;stroke-width:3px"/><rect x="57.75" y="131.85" width="20.24" height="24.26" rx="3.56" transform="translate(135.74 287.96) rotate(180)" style="fill:none;stroke:#fff;stroke-linecap:square;stroke-linejoin:round;stroke-width:3px"/><path d="M60.28,132a3.5,3.5,0,0,0-.55,1.87v18A2.14,2.14,0,0,0,61.88,154H76a3.44,3.44,0,0,0,1.9-.58,3.56,3.56,0,0,1-3.43,2.67H61.31a3.57,3.57,0,0,1-3.56-3.57V135.42A3.56,3.56,0,0,1,60.28,132Z" style="fill:none;stroke:#fff;stroke-linecap:square;stroke-linejoin:round;stroke-width:2px"/><line x1="73.08" y1="139.51" x2="73.08" y2="146.94" style="fill:none;stroke:#fff;stroke-linecap:round;stroke-linejoin:round;stroke-width:2px"/><rect x="64.66" y="139.51" width="4.28" height="5.27" transform="translate(133.6 284.28) rotate(180)" style="fill:none;stroke:#fff;stroke-linecap:square;stroke-linejoin:round;stroke-width:2px"/><path d="M65.84,147h1.92A2.26,2.26,0,0,0,70,144.77H63.58A2.26,2.26,0,0,0,65.84,147Z" style="fill:none;stroke:#fff;stroke-linecap:square;stroke-linejoin:round;stroke-width:2px"/><line x1="50.22" y1="94.17" x2="59.94" y2="84.45" style="fill:none;stroke:#fff;stroke-linecap:round;stroke-miterlimit:10;stroke-width:2px"/><line x1="48.41" y1="88.39" x2="54.13" y2="82.68" style="fill:none;stroke:#fff;stroke-linecap:round;stroke-miterlimit:10;stroke-width:2px"/><text transform="translate(26.78 175.51)" style="font-size:14px;fill:#f5f5f6;font-family:GeoOblique, Geo">By José Vargas</text></g></g></svg>