<svg xmlns="http://www.w3.org/2000/svg" viewBox="0 0 215.56 147.03"><title>Recurso 1</title><g id="Capa_2" data-name="Capa 2"><g id="Capa_1-2" data-name="Capa 1"><path d="M69.83,86.21h0Z" style="fill:#2e2e2e"/><path d="M128.23,74.06c-.07-.14-.16-.28-.24-.42l-.24-.44-.25-.42c-.17-.29-.34-.58-.52-.86l-.51-.81-.49-.75-.45-.67-.7-1-.26-.38a4,4,0,0,1,.34.31c.1.1.23.22.37.37l.47.5c.17.18.34.39.52.62s.37.46.56.72l.28.39.27.41c.18.28.37.56.54.86l.25.44.24.44c.16.29.3.6.43.89a8.48,8.48,0,0,1,.36.84l.16.4c0,.13.09.26.13.38l.21.67c.05.2.1.38.13.53l.11.45s-.08-.15-.2-.42-.14-.3-.22-.49-.19-.39-.29-.62l-.36-.73-.42-.8c-.07-.14-.14-.28-.22-.42Zm-4.68,4.08-.1-.2-.1-.22c0-.09-.08-.19-.13-.29s-.09-.22-.14-.34-.1-.25-.16-.38-.11-.27-.16-.41-.12-.27-.17-.41c-.23-.56-.46-1.12-.63-1.55l-.2-.52-.08-.2.16.14a5.07,5.07,0,0,1,.37.43,6.86,6.86,0,0,1,.44.66l.21.4c.07.14.12.28.19.43s.11.29.16.44.09.29.13.43.07.28.1.42,0,.26.06.37,0,.44,0,.58v.22Zm7.1.48c0-.16-.06-.33-.1-.51s-.08-.36-.14-.55-.11-.4-.17-.61-.14-.41-.21-.63c-.14-.44-.33-.89-.51-1.36-.1-.23-.22-.46-.32-.69s-.21-.48-.34-.71l-.38-.7-.18-.36-.21-.34c-.28-.46-.54-.93-.85-1.35l-.45-.65-.21-.32-.23-.3c-.31-.39-.6-.78-.89-1.14l-.84-1-.37-.43-.36-.38-.58-.6-.37-.39c-.42.18-.78.31-1,.4-.06.21-.12.43-.17.65a6.31,6.31,0,0,1-.41,1.06,5.75,5.75,0,0,0-.45,1.27,5.61,5.61,0,0,0-.08,1.14c0,.21,0,.42,0,.64,0,.68.1,1.56.12,2.51a21.42,21.42,0,0,1,2.23,5.2,31.07,31.07,0,0,1,7.62.73s0-.1,0-.15,0-.29-.08-.45Z" style="fill:#adadad"/><path d="M128.78,62.27l.33-.42c.06-.07.1-.14.15-.21a1.33,1.33,0,0,0,.14-.19c.08-.13.16-.24.22-.35s.12-.2.17-.27l.13-.26s0,.11,0,.29a3.4,3.4,0,0,1-.09.33,2.07,2.07,0,0,1-.15.41,3.92,3.92,0,0,1-.22.47c0,.08-.09.16-.14.24a1.75,1.75,0,0,1-.16.25,3.25,3.25,0,0,1-.37.48c-.13.16-.28.31-.42.46l-.47.41-.49.35-.48.27a3.58,3.58,0,0,1-.45.21,2.7,2.7,0,0,1-.38.15l-.31.09-.27.07.23-.17.26-.17.34-.24.39-.28.42-.32.44-.37.43-.39.41-.42c.13-.14.27-.28.38-.42ZM132.44,71c0-.11.05-.23.07-.38s.05-.31.08-.49,0-.38.09-.58,0-.42.09-.65.06-.45.09-.69l.09-.71c0-.24.05-.48.08-.72s.05-.47.08-.7c0-.45.09-.87.14-1.23s.07-.67.1-.88,0-.34,0-.34,0,.12.06.34.06.52.08.89c0,.18,0,.38,0,.59s0,.44,0,.67c0,.46-.05,1-.11,1.44,0,.25-.06.49-.1.73s-.09.47-.14.7-.1.44-.16.64-.11.4-.17.57-.12.34-.18.48-.11.25-.15.35l-.14.31s0-.13,0-.34Zm-4.52-8.29a17.47,17.47,0,0,1-4.46,2.71l.2.21.61.6c.11.12.24.24.37.37L125,67c.27.3.56.63.88,1s.6.75.92,1.15l.25.3.23.31.46.65c.33.43.61.91.91,1.37l.22.34.2.36.41.72c.13.23.24.48.36.72s.25.48.35.72c.2.48.41.94.57,1.39,0,.11.08.22.11.32l.13-.22c.12-.25.27-.53.43-.84a10.71,10.71,0,0,0,.47-1c.08-.18.16-.36.24-.56s.14-.39.21-.6.15-.41.22-.62.13-.43.2-.65c.14-.43.24-.88.35-1.33l.08-.34.07-.34c0-.22.1-.45.14-.67q.12-.68.21-1.32c.06-.43.12-.85.15-1.25,0-.19,0-.39,0-.57s0-.37,0-.54c0-.35,0-.67.05-1s0-.52,0-.72v-.5c-.31-.15-.6-.3-.88-.46-.08.22-.17.47-.3.76s-.18.43-.29.66-.24.47-.37.71-.28.49-.44.74l-.23.37-.25.36c-.17.24-.36.47-.54.69s-.37.43-.55.64a7.3,7.3,0,0,1-.55.56l-.26.25-.25.22c-.17.14-.31.27-.45.37l-.39.24a3.28,3.28,0,0,1-.35.17,2.53,2.53,0,0,1,.25-.32l.31-.32.41-.41.23-.23.23-.27c.15-.18.33-.37.48-.58s.34-.43.49-.66.31-.47.45-.71.15-.24.22-.36l.2-.37c.14-.24.26-.5.38-.73l.31-.7c.09-.23.18-.44.25-.64.13-.35.22-.65.29-.88a5.75,5.75,0,0,1-1.73-1.71c-.29-.49-.53-.93-.75-1.35a7.17,7.17,0,0,1-2,3.35Z" style="fill:#adadad"/><path d="M120,78.83c.59-.11,1.19-.19,1.78-.25-.05-.22-.1-.46-.17-.7s-.14-.43-.21-.62L121.3,77c0-.09-.08-.18-.12-.25a3.63,3.63,0,0,0-.19-.36l-.08-.13.11.1c.08.07.17.17.29.29s.11.14.18.21l.19.25c.13.17.26.36.39.56l.21.36a21.79,21.79,0,0,0-1.37-3.35c0,1.69-.25,3.35-.9,4.17Z" style="fill:#adadad"/><path d="M142.16,65.87a43,43,0,0,1-7.23-2.13v.07c0,.22,0,.47,0,.76s0,.62-.09,1l-.05.56c0,.19,0,.39-.08.59-.05.41-.14.84-.21,1.28s-.18.89-.28,1.35L134,70l-.08.35-.11.34c-.14.46-.27.91-.44,1.35l-.24.65c-.08.21-.18.42-.26.62l-.26.6-.28.56c-.19.36-.35.71-.54,1l-.5.82-.28.36v0c.07.21.14.42.2.63s.1.4.16.58.09.37.12.54.07.33.1.48,0,.29.06.41a.34.34,0,0,1,0,.1c.87.19,1.77.41,2.69.66l.13-.17c.13-.17.28-.4.46-.65s.17-.26.26-.41.2-.29.29-.45l.29-.51.29-.55c.09-.19.18-.39.28-.59s.18-.42.28-.63.17-.44.25-.66l.24-.69.21-.71c.06-.24.14-.48.19-.72s.11-.49.16-.74.09-.49.13-.73.07-.49.11-.73.06-.48.08-.71c.05-.47.09-.93.11-1.37s0-.85,0-1.23v-1q0-.47,0-.81c0-.23,0-.4,0-.52s0-.19,0-.19a5.28,5.28,0,0,1,.21.68c.06.22.13.49.19.8s.13.67.18,1.06.09.81.12,1.26,0,.93,0,1.43-.06,1-.13,1.52c0,.26-.07.52-.12.78s-.1.52-.16.78-.14.51-.21.76-.16.5-.24.75-.18.49-.28.72-.2.46-.31.68-.22.44-.34.64-.24.4-.36.59l-.37.54-.38.47a9.48,9.48,0,0,1-.7.78c-.22.22-.41.4-.58.55l-.1.07c1.31.35,2.68.74,4.13,1.17.08-.13.17-.26.26-.43l.34-.61c.07-.11.12-.24.18-.36l.19-.39c.07-.13.13-.27.19-.41l.19-.43c.13-.29.23-.61.36-.92s.24-.64.35-1,.22-.66.32-1,.21-.64.29-1,.18-.61.25-.9.16-.56.22-.81c.13-.5.24-.93.32-1.22l.11-.47a13.57,13.57,0,0,1-.15,1.75c0,.27-.07.55-.13.85l-.09.45c0,.16-.07.32-.11.48-.07.32-.16.65-.25,1s-.21.67-.31,1-.24.66-.37,1l-.21.47c-.07.15-.13.31-.21.45-.15.29-.29.58-.45.84s-.3.5-.45.71l-.42.57a3.6,3.6,0,0,1-.3.34l.39.12a19.16,19.16,0,0,0,3-15.57Z" style="fill:#adadad"/><path d="M81.88,63.24a3.18,3.18,0,0,1,0-.34s0,.12.07.33.09.51.15.87.13.78.21,1.23q.06.33.12.69l.12.71c0,.23.09.47.13.7s.09.47.14.69.08.44.12.64.08.39.13.57.07.34.1.49.07.27.09.37.07.33.07.33l-.16-.29L83,69.89l-.2-.46c-.07-.17-.13-.36-.2-.56s-.14-.41-.2-.64-.12-.45-.18-.68-.1-.48-.15-.72c-.08-.49-.15-1-.19-1.44,0-.23,0-.45,0-.66s0-.41,0-.6a7.35,7.35,0,0,1,0-.89ZM87,62.46c-.15-.15-.31-.28-.45-.43s-.28-.3-.4-.46l-.17-.24-.15-.23c-.1-.16-.18-.31-.25-.45s-.13-.28-.18-.41-.07-.23-.1-.31a2.11,2.11,0,0,1-.06-.29l.15.24.18.27.24.33.15.18.16.2q.17.2.36.39a5,5,0,0,0,.4.4c.14.14.29.26.43.39l.46.37c.15.11.3.23.45.33l.45.3.4.25a3.59,3.59,0,0,0,.35.21l.27.16.24.15-.27-.05-.31-.07a2.43,2.43,0,0,1-.39-.12l-.46-.18-.5-.24-.5-.32c-.17-.11-.33-.25-.5-.37Zm-5.59.66c0,.2,0,.44,0,.72s.06.6.1.94c0,.18,0,.36.07.54l.09.57c.06.4.14.81.22,1.24s.18.86.29,1.3l.18.66.09.34.1.33c.14.44.26.89.43,1.31l.23.63c.08.21.17.41.26.61s.17.39.25.58.18.37.27.54a9.82,9.82,0,0,0,.53,1l.48.81.13.21c0-.11.07-.21.1-.32.13-.47.31-.94.49-1.44.09-.24.2-.48.3-.73s.2-.5.32-.75l.36-.74.18-.37.21-.36c.27-.48.52-1,.82-1.42l.43-.68.21-.33.22-.32c.3-.42.58-.82.86-1.2l.82-1,.37-.46.34-.39.57-.64.2-.22a16.92,16.92,0,0,1-4.61-2.41,7,7,0,0,1-2.15-3.21c-.2.42-.41.89-.67,1.39a5.71,5.71,0,0,1-1.63,1.82c.08.22.19.52.34.86l.29.62.35.68c.14.23.27.47.42.7l.22.36.24.34c.16.24.33.46.5.68s.35.43.52.63.35.38.52.55l.25.25.24.22.43.38.33.3a3.16,3.16,0,0,1,.27.3,3.33,3.33,0,0,1-.37-.14L87,68.13c-.15-.09-.3-.21-.48-.34l-.26-.2L86,67.35a6.79,6.79,0,0,1-.58-.52c-.19-.19-.4-.38-.59-.6s-.39-.42-.57-.65L84,65.23c-.09-.12-.17-.24-.26-.35s-.32-.48-.47-.71-.29-.46-.42-.69l-.33-.63c-.14-.28-.25-.53-.34-.74-.27.18-.55.35-.85.52v0c0,.1,0,.26,0,.46Z" style="fill:#adadad"/><path d="M94.13,72.32c0,.13-.11.32-.18.54-.14.44-.34,1-.53,1.58l-.15.43c0,.14-.09.28-.14.41s-.09.27-.13.39-.09.24-.13.35-.07.21-.11.3-.06.16-.08.23l-.09.2a2,2,0,0,1,0-.22c0-.14,0-.34,0-.58s0-.24,0-.38.05-.27.08-.42.06-.29.1-.44.09-.3.14-.45.1-.3.16-.44.12-.28.19-.41a5.27,5.27,0,0,1,.4-.69,3.67,3.67,0,0,1,.34-.45,1.64,1.64,0,0,1,.15-.15l-.06.2Zm-4.42-3.17c-.14.24-.3.51-.45.78s-.31.55-.46.84-.32.59-.46.89-.16.29-.23.44-.15.3-.22.45l-.21.44c-.07.15-.13.29-.2.43l-.37.83c-.11.27-.22.52-.31.75l-.26.64c-.07.2-.14.36-.19.5s-.17.44-.17.44,0-.17.08-.47.06-.33.1-.53.1-.43.17-.68.07-.25.1-.39.09-.27.14-.41a9.18,9.18,0,0,1,.31-.87c.12-.29.23-.61.38-.91l.21-.46.23-.46c.15-.3.32-.59.48-.89l.25-.42.26-.41c.17-.27.34-.52.51-.76s.33-.45.49-.65.3-.38.43-.53l.36-.4c.2-.21.32-.32.32-.32l-.25.39-.63,1c-.13.21-.27.45-.41.7Zm5.22.07c0-.21-.05-.43-.06-.64a6.76,6.76,0,0,0-.15-1.13,5.86,5.86,0,0,0-.53-1.24,6.32,6.32,0,0,1-.46-1c-.07-.23-.14-.44-.21-.65-.26-.07-.63-.18-1.06-.32l-.34.4-.55.65c-.1.12-.21.26-.33.39l-.35.46-.78,1c-.27.38-.53.78-.82,1.2l-.21.31c-.06.11-.13.22-.2.33l-.4.68c-.28.44-.52.93-.77,1.4l-.19.36-.17.36-.33.73c-.11.24-.2.49-.3.73s-.19.47-.27.71c-.16.48-.33.94-.44,1.39-.06.22-.12.44-.17.65s-.09.41-.13.61-.07.39-.11.57-.06.35-.07.51,0,.31,0,.45,0,.1,0,.16A31.18,31.18,0,0,1,93,77.07,21.22,21.22,0,0,1,95,71.74c0-.95,0-1.84,0-2.52Z" style="fill:#adadad"/><path d="M93.85,76.53l.19-.37c.11-.2.23-.4.35-.58l.18-.26.17-.22a3.31,3.31,0,0,1,.27-.31l.1-.11a1.42,1.42,0,0,0-.07.14,2.23,2.23,0,0,0-.17.37c0,.07-.06.16-.1.25l-.09.29a6.52,6.52,0,0,0-.18.63c0,.25-.1.49-.13.71.6,0,1.19.07,1.79.14-.7-.78-1-2.42-1.14-4.11a22.53,22.53,0,0,0-1.17,3.43Z" style="fill:#adadad"/><path d="M85,75.78v0l-.3-.33c-.17-.23-.35-.5-.55-.79s-.39-.62-.6-1c-.1-.18-.21-.35-.31-.54s-.19-.38-.29-.58-.21-.4-.3-.61-.19-.42-.28-.63c-.2-.42-.35-.87-.52-1.32l-.12-.33-.11-.34c-.07-.22-.14-.45-.22-.67-.13-.45-.25-.9-.36-1.33s-.2-.86-.28-1.26c0-.2-.08-.4-.11-.59l-.09-.55c-.06-.35-.1-.68-.14-1s-.07-.55-.08-.76v-.07a44.42,44.42,0,0,1-7.09,2.61A19.11,19.11,0,0,0,77.2,81.07l.38-.14c-.09-.09-.2-.19-.31-.32s-.3-.34-.46-.54-.32-.44-.49-.68-.33-.53-.5-.81l-.24-.44c-.07-.15-.15-.3-.23-.45-.15-.31-.28-.64-.43-1s-.25-.65-.37-1-.21-.65-.31-1l-.13-.46c0-.16-.08-.31-.11-.45-.08-.29-.13-.58-.19-.83a13.69,13.69,0,0,1-.25-1.74l.14.45c.1.29.23.71.39,1.21l.26.79c.1.28.2.58.31.88s.23.62.34.94.25.63.38,1,.26.63.4.94.27.61.43.89l.21.42a3.75,3.75,0,0,0,.21.4l.21.37c.07.12.13.24.2.35s.26.41.37.59.21.29.29.41c1.42-.53,2.76-1,4-1.44l-.09-.07c-.18-.13-.39-.3-.62-.5s-.49-.45-.75-.73l-.4-.45-.4-.51c-.13-.18-.26-.38-.39-.57s-.25-.41-.38-.61l-.35-.66c-.11-.23-.22-.47-.32-.7s-.2-.49-.29-.73-.18-.5-.25-.76-.15-.5-.21-.76-.11-.51-.16-.77c-.1-.51-.17-1-.22-1.51a14,14,0,0,1-.07-1.42c0-.46,0-.88,0-1.27s.07-.76.12-1.07.09-.59.14-.81a7.13,7.13,0,0,1,.17-.7v.72c0,.22,0,.5,0,.81s0,.66.06,1.05.07.79.11,1.22.11.89.19,1.36l.12.71c.06.23.1.48.16.72s.11.48.17.72.13.48.21.72.15.47.22.71l.26.69.27.67.3.65c.11.2.2.41.31.61s.21.39.32.57l.32.53.32.49c.1.16.21.29.31.43a4.4,4.4,0,0,0,.29.39c.19.24.35.46.49.62l.14.16c.91-.31,1.79-.59,2.65-.84v-.1c0-.12,0-.26,0-.41s.05-.31.07-.48.06-.36.09-.55.07-.39.13-.6.1-.42.15-.64Z" style="fill:#adadad"/><path d="M108.15,73.45c-.07-.13-.15-.29-.23-.47.08.18.16.34.23.47Z" style="fill:#fff"/><path d="M107.8,73l0-.28.09.23-.09-.23,0,.28Z" style="fill:#fff"/><path d="M107.17,74.69c.08-.12.16-.25.23-.38s.12-.26.18-.4c-.06.14-.11.27-.18.4s-.15.26-.23.38Z" style="fill:#fff"/><path d="M147.53,85.56a.88.88,0,0,0,.05-.15l.65-2.84-.65,2.84a.88.88,0,0,1-.05.15Z" style="fill:#fff"/><path d="M146.77,86.08h0Z" style="fill:#fff"/><path d="M76.56,83.45l1.1-.5,1.09-.49L77.66,83l-1.1.5Z" style="fill:#fff"/><path d="M149.37,73.91l-5.66-.72,5.44,1.65-.25,1.09-4.05-.73,3.85,1.63-1.62,7L140,81.69a20.57,20.57,0,0,0,3-6.91,20.32,20.32,0,0,0,.51-4,19.53,19.53,0,0,0-.46-4.67c2.95.61,5.8,1,7.78,1.36l-1.49,6.48Zm-10.21,7.53-.39-.12a3.6,3.6,0,0,0,.3-.34l.42-.57c.15-.21.3-.46.45-.71s.3-.55.45-.84c.08-.14.14-.3.21-.45l.21-.47c.13-.32.25-.65.37-1s.22-.67.31-1,.18-.66.25-1c0-.16.08-.32.11-.48l.09-.45c.06-.3.09-.58.13-.85a13.57,13.57,0,0,0,.15-1.75l-.11.47c-.08.29-.19.72-.32,1.22-.06.25-.14.53-.22.81s-.16.59-.25.9-.19.63-.29,1-.21.65-.32,1-.22.64-.35,1-.23.63-.36.92l-.19.43c-.06.14-.12.28-.19.41l-.19.39c-.06.12-.11.25-.18.36l-.34.61c-.09.17-.18.3-.26.43-1.45-.43-2.82-.82-4.13-1.17l.1-.07c.17-.15.36-.33.58-.55a9.48,9.48,0,0,0,.7-.78l.38-.47.37-.54c.12-.19.23-.39.36-.59s.22-.42.34-.64.2-.45.31-.68.19-.48.28-.72.17-.49.24-.75.15-.51.21-.76.11-.52.16-.78.08-.52.12-.78c.07-.51.11-1,.13-1.52s0-1,0-1.43-.07-.87-.12-1.26-.11-.75-.18-1.06-.13-.58-.19-.8a5.28,5.28,0,0,0-.21-.68s0,.06,0,.19,0,.29,0,.52,0,.5,0,.81v1c0,.38,0,.8,0,1.23s-.06.9-.11,1.37c0,.23,0,.47-.08.71s-.07.49-.11.73-.08.49-.13.73-.1.49-.16.74-.13.48-.19.72l-.21.71-.24.69c-.08.22-.16.44-.25.66s-.18.43-.28.63-.19.4-.28.59l-.29.55-.29.51c-.09.16-.2.31-.29.45s-.17.29-.26.41-.33.48-.46.65l-.13.17c-.92-.25-1.82-.47-2.69-.66a.34.34,0,0,0,0-.1c0-.12,0-.26-.06-.41s-.07-.31-.1-.48-.08-.35-.12-.54-.1-.38-.16-.58-.13-.42-.2-.63v0l.28-.36.5-.82c.19-.29.35-.64.54-1l.28-.56.26-.6c.08-.2.18-.41.26-.62l.24-.65c.17-.44.3-.89.44-1.35l.11-.34L134,70l.18-.68c.1-.46.2-.91.28-1.35s.16-.87.21-1.28c0-.2,0-.4.08-.59l.05-.56c.05-.36.06-.69.09-1s0-.54,0-.76v-.07a43,43,0,0,0,7.23,2.13,19.16,19.16,0,0,1-3,15.57Zm-16-3a21.42,21.42,0,0,0-2.23-5.2c0-1-.08-1.83-.12-2.51,0-.22,0-.43,0-.64a5.61,5.61,0,0,1,.08-1.14,5.75,5.75,0,0,1,.45-1.27,6.31,6.31,0,0,0,.41-1.06c.05-.22.11-.44.17-.65.25-.09.61-.22,1-.4l.37.39.58.6.36.38.37.43.84,1c.29.36.58.75.89,1.14l.23.3.21.32.45.65c.31.42.57.89.85,1.35l.21.34.18.36.38.7c.13.23.23.47.34.71s.22.46.32.69c.18.47.37.92.51,1.36.07.22.15.43.21.63s.12.41.17.61.09.38.14.55.08.35.1.51.06.31.08.45,0,.1,0,.15a31.07,31.07,0,0,0-7.62-.73Zm-1.06-.84c-.13-.2-.26-.39-.39-.56l-.19-.25c-.07-.07-.12-.14-.18-.21s-.21-.22-.29-.29l-.11-.1.08.13a3.63,3.63,0,0,1,.19.36c0,.07.08.16.12.25l.11.28c.07.19.14.41.21.62s.12.48.17.7c-.59.06-1.19.14-1.78.25.65-.82.86-2.48.9-4.17A21.79,21.79,0,0,1,122.28,78l-.21-.36Zm-4.46-5.1,0,0H117c-.47,0-1,0-1.59,0s-1.2.06-1.81.11c-1.23.1-2.45.24-3.36.35l-1.27.15a6,6,0,0,1-.55-4.61l.06-.25h1.27c.94,0,2.2-.08,3.44-.14l.88,0a2.15,2.15,0,0,0,2.74,1.31l0,.28c0,.14,0,.27,0,.4s0,.27,0,.4a1.21,1.21,0,0,0,0,.19c0,.07,0,.13,0,.19s0,.13,0,.19l0,.17a.88.88,0,0,1,0,.17l0,.16c0,.1,0,.19-.06.28s0,.15-.06.21l0,.2a.71.71,0,0,0,.14-.14s.1-.1.15-.17a2,2,0,0,0,.17-.26s.06-.1.08-.15l.08-.18a1.34,1.34,0,0,1,.07-.18c0-.07,0-.14,0-.21s0-.14,0-.21,0-.15,0-.22a2.36,2.36,0,0,0,0-.46,3.42,3.42,0,0,0,0-.45c0-.15-.06-.29-.1-.43s0,0,0-.06a2.91,2.91,0,0,0,.43-.43l.29-.39a3.16,3.16,0,0,1-.36,4.15Zm.31,2.2a2.83,2.83,0,0,1-1.24,1.82c-2.08,1.56-5.53.93-6.21.79l-.18-.12a0,0,0,0,0,0,0,1,1,0,0,0-.09-.17c0-.06-.06-.14-.1-.21s-.07-.16-.1-.25a2.15,2.15,0,0,1-.1-.27s0-.1,0-.15a.83.83,0,0,1,0-.15l0-.16,0-.15c0-.11,0-.22,0-.32s0-.22,0-.32a5.46,5.46,0,0,1,0-.58c0-.17,0-.32,0-.43v-.16a.93.93,0,0,0-.1.13,1.85,1.85,0,0,0-.22.39,2.45,2.45,0,0,0-.17.61,2.22,2.22,0,0,0,0,.37,2.36,2.36,0,0,0,0,.38l0,.2.06.18a.8.8,0,0,0,.07.2,3.42,3.42,0,0,1-.42-2.64c0-.07,0-.14,0-.19l1.23,0c.91,0,2.14-.09,3.35-.09.61,0,1.22,0,1.79,0l1.21.07c0,.09,0,.17.05.27s0,.2,0,.31,0,.23,0,.34,0,.23,0,.34a1.08,1.08,0,0,1,0,.18.91.91,0,0,0,0,.17c0,.11,0,.22,0,.33s0,.2-.06.3-.05.2-.07.28,0,.17-.07.24,0,.14-.07.19l0,.17.13-.11a1.79,1.79,0,0,0,.15-.14.89.89,0,0,0,.16-.21,1.78,1.78,0,0,0,.17-.27,1.64,1.64,0,0,0,.14-.33,2.36,2.36,0,0,0,.1-.38,1.36,1.36,0,0,0,0-.2,1.48,1.48,0,0,0,0-.21,1.79,1.79,0,0,0,0-.4,2.32,2.32,0,0,0-.07-.38,3.4,3.4,0,0,0-.12-.34.61.61,0,0,0,0-.12l.6.06.25,0a2.43,2.43,0,0,1,.09,1.14Zm-11.08-3.89-1.27-.06c-.92,0-2.15-.11-3.38-.12-.61,0-1.23,0-1.81,0s-1.12,0-1.59.08l-.55,0,0,0a3.16,3.16,0,0,1-.61-4.12c.1.13.21.25.32.37a3.23,3.23,0,0,0,.45.4s0,0,0,.07a2.74,2.74,0,0,0-.08.43c0,.15,0,.3,0,.45s0,.31,0,.45a1.85,1.85,0,0,1,0,.23l.06.21c0,.06,0,.13.07.2a1.42,1.42,0,0,0,.08.18l.08.17.1.15.17.24a1.2,1.2,0,0,0,.17.16l.14.14s0-.08-.06-.2,0-.13-.07-.21,0-.18-.07-.28l0-.15,0-.17a1.36,1.36,0,0,0,0-.17,1.1,1.1,0,0,0,0-.18l0-.19c0-.07,0-.13,0-.2s0-.26,0-.39,0-.27,0-.4,0-.19,0-.29a2.15,2.15,0,0,0,2.65-1.49l.89,0c1.24,0,2.5,0,3.44-.09l.64,0,.49,0H107a2.25,2.25,0,0,1,.08.24,6,6,0,0,1-.28,4.63ZM106.59,74a1.52,1.52,0,0,0,.06-.2c0-.06,0-.13,0-.19l0-.19a1.7,1.7,0,0,0,0-.39,2.08,2.08,0,0,0,0-.36,2.71,2.71,0,0,0-.21-.61,1.82,1.82,0,0,0-.24-.37.61.61,0,0,0-.11-.13l0,.17c0,.11,0,.25.06.43s0,.37,0,.57v.32c0,.11,0,.22,0,.32v.16l0,.16,0,.15a.83.83,0,0,1,0,.15,1.29,1.29,0,0,1-.08.28.92.92,0,0,1-.09.25c0,.08,0,.16-.08.22a1.22,1.22,0,0,0-.08.17l0,0-.17.14c-.66.18-4.07,1-6.24-.38A2.87,2.87,0,0,1,98,73a2.52,2.52,0,0,1,0-1.14l.25,0,.59-.1,0,.12a3.57,3.57,0,0,0-.1.35c0,.12,0,.25,0,.38a2.81,2.81,0,0,0,0,.41,1.5,1.5,0,0,0,0,.2,1.77,1.77,0,0,0,0,.2,2.26,2.26,0,0,0,.11.37,2.39,2.39,0,0,0,.16.32,2,2,0,0,0,.18.26,1.9,1.9,0,0,0,.18.2l.15.13.14.1-.06-.17-.07-.18c0-.07-.05-.15-.09-.24s-.06-.17-.09-.27-.06-.19-.08-.3a3.23,3.23,0,0,1-.06-.33,1.22,1.22,0,0,0,0-.17,1,1,0,0,0,0-.17c0-.11,0-.23,0-.34s0-.23,0-.34,0-.22,0-.32l0-.26c.37-.06.78-.11,1.21-.15s1.17-.12,1.78-.15c1.21-.08,2.44-.12,3.35-.14l1.23,0a1.89,1.89,0,0,1,.06.18,3.42,3.42,0,0,1-.26,2.66Zm-12.22,3c0-.22.08-.46.13-.71a6.52,6.52,0,0,1,.18-.63l.09-.29c0-.09.06-.18.1-.25a2.23,2.23,0,0,1,.17-.37,1.42,1.42,0,0,1,.07-.14l-.1.11a3.31,3.31,0,0,0-.27.31l-.17.22-.18.26c-.12.18-.24.38-.35.58l-.19.37A22.53,22.53,0,0,1,95,73.1c.13,1.69.44,3.33,1.14,4.11-.6-.07-1.19-.11-1.79-.14Zm-1.34,0a31.18,31.18,0,0,0-7.57,1.24c0-.06,0-.11,0-.16s0-.29,0-.45,0-.33.07-.51.06-.37.11-.57.08-.4.13-.61.11-.43.17-.65c.11-.45.28-.91.44-1.39.08-.24.18-.47.27-.71s.19-.49.3-.73l.33-.73.17-.36.19-.36c.25-.47.49-1,.77-1.4l.4-.68c.07-.11.14-.22.2-.33l.21-.31c.29-.42.55-.82.82-1.2l.78-1,.35-.46c.12-.13.23-.27.33-.39l.55-.65.34-.4c.43.14.8.25,1.06.32.07.21.14.42.21.65a6.32,6.32,0,0,0,.46,1,5.86,5.86,0,0,1,.53,1.24,6.76,6.76,0,0,1,.15,1.13c0,.21,0,.43.06.64,0,.68,0,1.57,0,2.52A21.22,21.22,0,0,0,93,77.07Zm-8.27,0c0,.19-.07.37-.09.55s0,.33-.07.48,0,.29,0,.41v.1c-.86.25-1.74.53-2.65.84l-.14-.16c-.14-.16-.3-.38-.49-.62a4.4,4.4,0,0,1-.29-.39c-.1-.14-.21-.27-.31-.43l-.32-.49L80,76.78c-.11-.18-.21-.38-.32-.57s-.2-.41-.31-.61l-.3-.65-.27-.67-.26-.69c-.07-.24-.16-.47-.22-.71s-.15-.48-.21-.72-.12-.48-.17-.72-.1-.49-.16-.72L77.7,70c-.08-.47-.14-.92-.19-1.36s-.08-.84-.11-1.22,0-.74-.06-1.05,0-.59,0-.81v-.72a7.13,7.13,0,0,0-.17.7c-.05.22-.1.49-.14.81s-.09.67-.12,1.07,0,.81,0,1.27a14,14,0,0,0,.07,1.42c0,.49.12,1,.22,1.51,0,.26.1.52.16.77s.14.51.21.76.17.51.25.76.19.48.29.73.21.47.32.7l.35.66c.13.2.25.42.38.61s.26.39.39.57l.4.51.4.45c.26.28.52.52.75.73s.44.37.62.5l.09.07c-1.29.43-2.63.91-4,1.44-.08-.12-.19-.25-.29-.41s-.23-.38-.37-.59-.13-.23-.2-.35l-.21-.37a3.75,3.75,0,0,1-.21-.4l-.21-.42c-.16-.28-.28-.59-.43-.89s-.27-.62-.4-.94-.26-.63-.38-1-.24-.63-.34-.94-.21-.6-.31-.88L74.09,73c-.16-.5-.29-.92-.39-1.21l-.14-.45A13.69,13.69,0,0,0,73.81,73c.06.25.11.54.19.83,0,.14.07.29.11.45l.13.46c.1.32.2.65.31,1s.25.65.37,1,.28.65.43,1c.08.15.16.3.23.45l.24.44c.17.28.32.56.5.81s.33.48.49.68.32.38.46.54.22.23.31.32l-.38.14a19.11,19.11,0,0,1-3.91-15.33,44.42,44.42,0,0,0,7.09-2.61v.07c0,.21,0,.47.08.76s.08.62.14,1l.09.55c0,.19.07.39.11.59.08.4.18.82.28,1.26s.23.88.36,1.33c.08.22.15.45.22.67l.11.34.12.33c.17.45.32.9.52,1.32.09.21.18.43.28.63s.2.41.3.61.19.39.29.58.21.36.31.54c.21.34.39.68.6,1s.38.56.55.79l.3.33v0c-.05.22-.1.44-.15.64s-.09.41-.13.6ZM69.43,84l-2-6.87,3.74-1.88-4,1-.31-1.06,5.33-2-5.6,1.09L64.7,67.86c2-.44,4.78-1.06,7.69-1.87a19.07,19.07,0,0,0-.18,4.69,19.49,19.49,0,0,0,.74,4,20.48,20.48,0,0,0,3.42,6.7c-2.13.79-4.42,1.67-6.94,2.6ZM82.19,62.11c.09.21.2.46.34.74l.33.63q.19.35.42.69c.15.23.3.48.47.71s.17.23.26.35l.27.35c.18.23.38.44.57.65s.4.41.59.6a6.79,6.79,0,0,0,.58.52l.28.24.26.2c.18.13.33.25.48.34l.39.22a3.33,3.33,0,0,0,.37.14,3.16,3.16,0,0,0-.27-.3l-.33-.3-.43-.38-.24-.22L86.28,67c-.17-.17-.35-.35-.52-.55s-.36-.4-.52-.63-.34-.44-.5-.68l-.24-.34-.22-.36c-.15-.23-.28-.47-.42-.7l-.35-.68-.29-.62c-.15-.34-.26-.64-.34-.86a5.71,5.71,0,0,0,1.63-1.82c.26-.5.47-1,.67-1.39a7,7,0,0,0,2.15,3.21A16.92,16.92,0,0,0,91.94,64l-.2.22-.57.64-.34.39-.37.46-.82,1c-.28.38-.56.78-.86,1.2l-.22.32-.21.33-.43.68c-.3.45-.55.94-.82,1.42l-.21.36-.18.37-.36.74c-.12.25-.21.5-.32.75s-.21.49-.3.73c-.18.5-.36,1-.49,1.44,0,.11-.07.21-.1.32L85,75.22l-.48-.81a9.82,9.82,0,0,1-.53-1q-.14-.25-.27-.54c-.08-.19-.17-.38-.25-.58s-.18-.4-.26-.61L83,71.07c-.17-.42-.29-.87-.43-1.31l-.1-.33-.09-.34-.18-.66c-.11-.44-.2-.88-.29-1.3s-.16-.84-.22-1.24l-.09-.57c0-.18,0-.36-.07-.54,0-.34-.07-.66-.1-.94s0-.52,0-.72,0-.36,0-.46v0c.3-.17.58-.34.85-.52Zm10.94-8.74c5-.63,6.79.37,7.45,1a13.11,13.11,0,0,1,.7,5.2l-.26-.18a1.59,1.59,0,0,0-.58-.2h-.32l-.31,0a2.41,2.41,0,0,0-.66.18,2.2,2.2,0,0,0-.32.21,1.3,1.3,0,0,0-.26.31,1.74,1.74,0,0,0-.23.72,2.58,2.58,0,0,0,0,.68,5.18,5.18,0,0,0,.1.61c0,.19.09.37.14.53a2.85,2.85,0,0,0,.16.42,3.26,3.26,0,0,0,.15.32c.09.17.15.26.15.26a2.2,2.2,0,0,0,0-.31c0-.09,0-.21-.06-.34s0-.28-.09-.44-.06-.33-.08-.51a3.43,3.43,0,0,1,0-.56,2.2,2.2,0,0,1,0-.58,1.21,1.21,0,0,1,.2-.49,1,1,0,0,1,.17-.18l.21-.11a1.71,1.71,0,0,1,.5-.1h.49a1.14,1.14,0,0,1,.36.15,2.28,2.28,0,0,1,.5.44l.11.13c0,.4.11.81.18,1.2a10.68,10.68,0,0,1,.19,1.36,1.64,1.64,0,0,1-.18.16l-.14.11-.17.1-.2.1-.1,0-.11,0-.23,0h-.22a1.48,1.48,0,0,1-.21,0l-.18,0c-.06,0-.12,0-.16,0l-.12,0-.11,0,.1.06.11.07.15.07.19.07a1.41,1.41,0,0,0,.22.06,1.57,1.57,0,0,0,.24,0,1,1,0,0,0,.25,0H101l.13,0,.24-.06.22-.08.09-.05a1,1,0,0,1-.6.72,2.63,2.63,0,0,1-2.09-.26,3.4,3.4,0,0,1-1.7-2.42c-.43-2.13-.63-3.06-.72-3.43a1.41,1.41,0,0,1,0-.2V58a.68.68,0,0,1,0-.14c0-.09,0-.18.06-.28l.11-.29c0-.09.08-.19.13-.28a2.2,2.2,0,0,1,.15-.26l.16-.24.17-.2c.1-.13.2-.22.26-.29l.11-.11-.13.08a3.27,3.27,0,0,0-.33.21,1.92,1.92,0,0,1-.21.16l-.22.2a2.61,2.61,0,0,0-.23.24,2.75,2.75,0,0,0-.22.26c-.07.1-.13.2-.19.3a1.82,1.82,0,0,0-.16.31,1.11,1.11,0,0,1-.07.16c0,.05,0,.09,0,.14a5.75,5.75,0,0,1-2.07.89l0,0-.15-.19-.15-.21a5.46,5.46,0,0,1-.27-.48l-.14-.25L93,57.44c-.09-.18-.15-.37-.22-.55l-.09-.28a2.76,2.76,0,0,1-.08-.27c0-.18-.11-.36-.14-.53s-.08-.33-.11-.48a4.18,4.18,0,0,1-.08-.41c0-.13,0-.24,0-.32l0-.28s0,.1,0,.28v.33c0,.12,0,.26,0,.42s0,.32,0,.5,0,.37,0,.57l0,.29a2.87,2.87,0,0,0,0,.31,4.83,4.83,0,0,0,.12.62l.07.31a2.81,2.81,0,0,0,.1.31,4.14,4.14,0,0,0,.21.59l0,.09a3.75,3.75,0,0,1-1.44-.35L90.16,58,91,59.13a16.15,16.15,0,0,1,1.61,3.09h-.16l-.22,0-.22,0a3.17,3.17,0,0,1-.49-.12L91.32,62l-.25-.09a5.11,5.11,0,0,1-.48-.22l-.24-.12-.22-.13a4.23,4.23,0,0,1-.42-.25l-.37-.25a2.77,2.77,0,0,1-.31-.22l-.23-.18-.2-.15.17.19.2.21a3.5,3.5,0,0,0,.27.28l.33.32.39.33.2.18.23.16a3.88,3.88,0,0,0,.47.32l.24.15.25.14c.17.09.35.16.52.23l.25.09h0a3.56,3.56,0,0,1-1.12,0,15.26,15.26,0,0,1-3.29-1.87,6.85,6.85,0,0,1-2.11-3.57c1.14-2.44,2-3.41,7.52-4.11ZM105,56.59a.29.29,0,0,1,0,.09c.09.35.21.79.32,1.23,0,.11,0,.22.08.32s.05.22.07.32,0,.21.06.3,0,.19,0,.28l0,.23c0,.07,0,.14,0,.19s0,.17,0,.17l.07-.16a1.71,1.71,0,0,0,.07-.18c0-.07,0-.16,0-.25a2.43,2.43,0,0,0,0-.3c0-.11,0-.22,0-.34a2.21,2.21,0,0,0,0-.35c0-.12,0-.23-.06-.35a4.74,4.74,0,0,1,.2.56,4.58,4.58,0,0,1,.17,1.69l-.49,0c-.44,0-1-.06-1.62-.07l-1.61,0-.48,0V59.8a16.76,16.76,0,0,0-.46-4.82A5.87,5.87,0,0,1,105,56.59Zm2,5.29a7,7,0,0,1,0,3.79h-1.24c-.93,0-2.17-.1-3.42-.17l-.69,0a2.58,2.58,0,0,0,0-.62c.91-.72.69-2,.47-3.19-.06-.31-.12-.62-.16-.94l.44,0,1.61-.18,1.6-.14.65,0a7.12,7.12,0,0,1,.67,1.56Zm1.35,2.37a7.59,7.59,0,0,1,.58-1.6l.65,0c.44,0,1,0,1.61,0l1.61.07h.44c0,.32-.06.64-.1,1-.14,1.23-.29,2.5.66,3.16a3.23,3.23,0,0,0,.06.61l-.68.07c-1.25.15-2.48.32-3.41.4l-.63,0-.49,0h-.11a6.85,6.85,0,0,1-.19-3.78Zm.79-3.59a5.27,5.27,0,0,1,.18-.57c0,.12,0,.23-.05.35s0,.24,0,.35,0,.23,0,.34a2.27,2.27,0,0,0,.06.3c0,.09,0,.17.07.24a1.59,1.59,0,0,0,.08.18,1.15,1.15,0,0,0,.07.15s0-.06,0-.17a1.34,1.34,0,0,1,0-.19,1.66,1.66,0,0,0,0-.24c0-.08,0-.17,0-.27s0-.2,0-.3,0-.22,0-.33l.06-.33c.08-.44.18-.89.24-1.24,0,0,0-.06,0-.09A5.9,5.9,0,0,1,113.4,57a16.85,16.85,0,0,0-.18,4.83v.08l-.47.05-1.61.15c-.58,0-1.17.11-1.61.17l-.49.08a4.61,4.61,0,0,1,.07-1.7Zm4.66,3.13c0-.4.1-.81.12-1.22l.1-.13a2.3,2.3,0,0,1,.47-.47,1,1,0,0,1,.35-.17l.09,0H115l.26,0a1.38,1.38,0,0,1,.5.07.88.88,0,0,1,.22.1,1.37,1.37,0,0,1,.18.16,1.13,1.13,0,0,1,.23.48,2.18,2.18,0,0,1,.08.57,5.32,5.32,0,0,1,0,.57c0,.18,0,.35-.06.52s0,.3,0,.44,0,.25,0,.34,0,.31,0,.31.06-.1.14-.27.08-.2.13-.33a3.17,3.17,0,0,0,.13-.43,3.8,3.8,0,0,0,.11-.53,4.05,4.05,0,0,0,.07-.62,3.18,3.18,0,0,0,0-.68,1.79,1.79,0,0,0-.28-.71,1.44,1.44,0,0,0-.27-.28,1.63,1.63,0,0,0-.34-.19,2.11,2.11,0,0,0-.67-.14h-.45l-.18,0a1.51,1.51,0,0,0-.56.24,1.81,1.81,0,0,0-.25.19,12.93,12.93,0,0,1,.4-5.23c.62-.7,2.39-1.82,7.37-1.52,5.6.33,6.46,1.25,7.75,3.61a6.9,6.9,0,0,1-1.9,3.7,15.37,15.37,0,0,1-3.18,2.08,3.37,3.37,0,0,1-1.11.11h0l.25-.1c.16-.08.33-.17.49-.27a2.07,2.07,0,0,0,.25-.15l.23-.16a5.63,5.63,0,0,0,.46-.36c.07-.06.14-.11.21-.18l.19-.18c.13-.13.26-.24.37-.36l.31-.34c.1-.1.17-.21.25-.29l.19-.24.16-.2-.19.17-.22.19a2.65,2.65,0,0,1-.3.25l-.35.27a4.85,4.85,0,0,1-.41.28l-.21.14-.23.14c-.15.08-.31.17-.47.24l-.24.12-.24.09a3.18,3.18,0,0,1-.47.15,1.06,1.06,0,0,1-.23.05l-.22,0h-.15a17.24,17.24,0,0,1,1.42-3.19l.81-1.2-1.23.69a3.54,3.54,0,0,1-1.42.44.36.36,0,0,0,0-.09c.06-.2.13-.4.18-.6s0-.21.07-.32l.06-.31c0-.21.06-.42.08-.63s0-.21,0-.31,0-.2,0-.3,0-.38,0-.56,0-.35,0-.51,0-.29,0-.42,0-.24,0-.33,0-.28,0-.28l0,.28c0,.09,0,.2,0,.33a3.5,3.5,0,0,1,0,.41c0,.15,0,.32-.08.49s-.07.35-.11.54l-.06.28c0,.09,0,.19-.08.28a5.22,5.22,0,0,1-.18.56l-.1.28-.12.26a3.21,3.21,0,0,1-.25.49c0,.08-.09.15-.13.22s-.09.14-.14.2l0,0a5.49,5.49,0,0,1-2.11-.76l-.06-.13-.07-.16c-.05-.1-.12-.2-.18-.3s-.13-.19-.21-.28a2.84,2.84,0,0,0-.23-.25c-.09-.08-.16-.16-.24-.22l-.24-.19-.22-.14a2.58,2.58,0,0,0-.34-.19l-.13-.07.11.1c.07.07.17.15.28.27l.18.19.17.23a2.71,2.71,0,0,1,.17.25,2.34,2.34,0,0,1,.15.27c0,.09.08.19.12.28s.06.19.08.28l0,.13s0,.09,0,.13a1.48,1.48,0,0,1,0,.21c-.06.37-.21,1.32-.52,3.46A3.36,3.36,0,0,1,116.47,66a2.65,2.65,0,0,1-2.07.4,1,1,0,0,1-.64-.67l.09,0,.23.07a1,1,0,0,0,.25,0l.12,0h.13l.25,0a1.4,1.4,0,0,0,.24-.06,1.42,1.42,0,0,0,.22-.07l.18-.08a1.19,1.19,0,0,0,.15-.09l.1-.07.1-.06-.11,0-.11.05-.16,0a1.06,1.06,0,0,1-.19,0,1.2,1.2,0,0,1-.2,0,1.74,1.74,0,0,1-.45,0l-.11,0-.11,0-.2-.08-.18-.1-.15-.1-.18-.15a10.6,10.6,0,0,1,.1-1.36Zm16.1-4.45c.22.42.46.86.75,1.35a5.75,5.75,0,0,0,1.73,1.71c-.07.23-.16.53-.29.88-.07.2-.16.41-.25.64l-.31.7c-.12.23-.24.49-.38.73l-.2.37c-.07.12-.14.24-.22.36s-.3.48-.45.71-.33.44-.49.66-.33.4-.48.58l-.23.27-.23.23-.41.41-.31.32a2.53,2.53,0,0,0-.25.32,3.28,3.28,0,0,0,.35-.17l.39-.24c.14-.1.28-.23.45-.37l.25-.22.26-.25a7.3,7.3,0,0,0,.55-.56c.18-.21.38-.41.55-.64s.37-.45.54-.69l.25-.36.23-.37c.16-.25.3-.5.44-.74s.26-.48.37-.71.21-.45.29-.66.22-.54.3-.76c.28.16.57.31.88.46v.5c0,.2,0,.44,0,.72s0,.6-.05,1c0,.17,0,.35,0,.54s0,.38,0,.57c0,.4-.09.82-.15,1.25s-.13.87-.21,1.32c0,.22-.09.45-.14.67l-.07.34-.08.34c-.11.45-.21.9-.35,1.33-.07.22-.13.44-.2.65s-.14.42-.22.62-.14.41-.21.6-.16.38-.24.56a10.71,10.71,0,0,1-.47,1c-.16.31-.31.59-.43.84l-.13.22c0-.1-.07-.21-.11-.32-.16-.45-.37-.91-.57-1.39-.1-.24-.23-.48-.35-.72s-.23-.49-.36-.72l-.41-.72-.2-.36-.22-.34c-.3-.46-.58-.94-.91-1.37l-.46-.65-.23-.31-.25-.3c-.32-.4-.62-.79-.92-1.15s-.61-.67-.88-1l-.39-.43c-.13-.13-.26-.25-.37-.37l-.61-.6-.2-.21a17.47,17.47,0,0,0,4.46-2.71,7.17,7.17,0,0,0,2-3.35Zm21.68,7.6a.76.76,0,0,0-.11-.14.79.79,0,0,0-.46-.24l-.31,0-.26,0-.2,0-1.74-.27-.64-.11-1.24-.21-.79-.14-.83-.16c-.44-.08-.88-.16-1.33-.26-1.47-.29-3-.63-4.4-1q-1.53-.42-2.7-.84l-.75-.28c-.54-.21-1-.41-1.44-.61l-.27-.14-.49-.25-.26-.15a9.11,9.11,0,0,1-1-.7,5.56,5.56,0,0,1-.49-.44h0a2.73,2.73,0,0,1-.28-.33,1.74,1.74,0,0,1-.2-.3c-.27-.45-.51-.88-.72-1.27-.07-.14-.14-.26-.2-.39s-.19-.35-.28-.52c-.19-.33-.37-.65-.56-.95a6.27,6.27,0,0,0-.6-.83l-.26-.28a4.62,4.62,0,0,0-.94-.73l-.13-.08-.22-.12-.24-.11-.32-.13-.21-.08a18.84,18.84,0,0,0-5-.77l-.74,0h-1.78l-.69,0h-.1l-.61.06h-.09l-.61.1-.12,0-.57.13h-.05l-.49.15-.09,0a3.8,3.8,0,0,0-.47.18l-.09,0a3.55,3.55,0,0,0-.44.21h0l-.25.15-.22.15a3.3,3.3,0,0,0-.86.87,7.66,7.66,0,0,0-3,1.26,4.08,4.08,0,0,0-.33.25l-.34.31a4.85,4.85,0,0,0-.49.55,5.14,5.14,0,0,0-.93,2,5.45,5.45,0,0,0-.15,1.23h0c0,.21,0,.38,0,.52s-.13.28-.19.42a7.85,7.85,0,0,0-.22-1,8.6,8.6,0,0,0-.78-1.79,3.11,3.11,0,0,0,0-.52,5.68,5.68,0,0,0-.21-1.22,5.27,5.27,0,0,0-.87-1.7,5.46,5.46,0,0,0-.86-.88,5.72,5.72,0,0,0-.79-.53,5.8,5.8,0,0,0-1-.45,8.69,8.69,0,0,0-1.18-.34l-.68-.11a1.13,1.13,0,0,0-.1-.13,3.69,3.69,0,0,0-.6-.55c-.13-.09-.28-.18-.44-.27L100,53l-.36-.14-.11-.05-.28-.09-.13,0-.34-.09-.08,0-.43-.09-.13,0-.35-.05-.16,0-.37,0h-.13l-.53,0H95.27l-.65,0h-.15l-.54,0-.19,0-.71.08a20.16,20.16,0,0,0-4.71,1l-.3.12a6.57,6.57,0,0,0-1,.55,7.13,7.13,0,0,0-2.31,3.21l-.12.27c-.24.51-.5,1.09-.82,1.72a4.75,4.75,0,0,1-1.33,1.48l-.21.16-.22.15-.12.09-.3.19c-.21.14-.44.28-.7.42a2,2,0,0,1-.25.14l-.39.21a33.27,33.27,0,0,1-4.15,1.71,106.88,106.88,0,0,1-10.82,2.9l-.76.17a.81.81,0,0,0-.31.15.67.67,0,0,0-.23.27.9.9,0,0,0-.08.7L69,85.59h0l.06.15,0,0a.35.35,0,0,0,.06.09l0,0a.46.46,0,0,1,.07.07l0,0,.1.07,0,0,.13.06h0l.11,0h.2l.15,0,.72-.26c.52-.19,1.08-.41,1.69-.67l.47-.19,1-.43,1-.45,1.6-.72,1.1-.5,1.09-.49L79.83,82l2.09-.92.49-.21c.4-.17.77-.33,1.14-.47.54-.22,1-.42,1.49-.58l.36-.12c.21-.07.45-.14.7-.2l.4-.09c.27-.06.56-.12.87-.17l.47-.08c.48-.08,1-.15,1.53-.22,1.25-.16,2.64-.3,4.06-.44a63.38,63.38,0,0,0,10.45-1.61,8.68,8.68,0,0,0,1.19-.45,5.46,5.46,0,0,0,1.4-.91,3.06,3.06,0,0,0,.36-.36,4.43,4.43,0,0,0,.34-.45c.08-.12.16-.25.23-.38s.12-.26.18-.4a4.31,4.31,0,0,0,.16-.59l.06-.29,0-.28.09.23c.08.18.16.34.23.47l0,.07a4.82,4.82,0,0,0-.12,1v.2a3.07,3.07,0,0,0,0,.42,4.27,4.27,0,0,0,.13.66c0,.15.1.3.16.46s.15.3.24.46a4.11,4.11,0,0,0,.61.78s0,0,0,0a5.66,5.66,0,0,0,.52.43,3.13,3.13,0,0,0,.3.2,4.6,4.6,0,0,0,.44.25,8,8,0,0,0,1.75.6c.73.16,1.51.29,2.34.4l1.28.14,1.33.11c1.12.09,2.29.14,3.46.19l2.12.08.63,0,1.73.07h0l2.16.11.59,0,.88.08h.1c.59.07,1.13.15,1.59.25l.34.08c.33.08.7.19,1.09.31l.2.07.79.25c.47.16,1,.33,1.48.52l.52.18,2.17.81,1.67.62,1.13.43.56.21,1.08.4,1,.39,1.47.52.91.3c.57.19,1.1.34,1.56.46a.63.63,0,0,0,.19,0h.15l.14,0,0,0,.09-.05,0,0,.08-.06s0,0,0,0l.06-.08,0,0,.05-.09,0,0a.88.88,0,0,0,.05-.15l.65-2.84,3.44-14.93a1,1,0,0,0-.12-.7Z" style="fill:#fff"/><path d="M107,67.63c0-.12-.07-.24-.11-.34a1.57,1.57,0,0,0-.14-.29,2.36,2.36,0,0,0-.13-.23l-.13-.16a.84.84,0,0,0-.12-.13l0,.18c0,.11,0,.26.08.44a2.54,2.54,0,0,1,0,.29,3.11,3.11,0,0,1,0,.32c0,.11,0,.22,0,.34s0,.23,0,.34a.91.91,0,0,1,0,.17c0,.06,0,.12,0,.17s0,.22,0,.33a2.82,2.82,0,0,1-.07.31,2.29,2.29,0,0,1-.08.28,1.68,1.68,0,0,1-.07.24c0,.06-.05.13-.07.18l0,.17a.78.78,0,0,0,.13-.11l.15-.13a1.93,1.93,0,0,0,.17-.21,1.39,1.39,0,0,0,.17-.27,1.64,1.64,0,0,0,.14-.33,1.51,1.51,0,0,0,.1-.38c0-.06,0-.13,0-.2a1.41,1.41,0,0,1,0-.2,1.76,1.76,0,0,0,0-.4,3.79,3.79,0,0,0-.06-.38Z" style="fill:#fff"/><path d="M106.17,61.93l.06.34.06.37c0,.13,0,.25,0,.38a2.43,2.43,0,0,1,0,.38c0,.06,0,.12,0,.18v.19a1,1,0,0,0,0,.17v.17c0,.11,0,.22,0,.32a2.26,2.26,0,0,1,0,.27c0,.08,0,.15,0,.21s0,.2,0,.2l.11-.16s.07-.11.11-.19a2.17,2.17,0,0,0,.12-.26l.06-.16s0-.11,0-.17,0-.12,0-.18l0-.2a2.73,2.73,0,0,0,0-.41c0-.14,0-.28,0-.42s0-.28-.07-.42a3.64,3.64,0,0,0-.11-.39,3,3,0,0,0-.14-.36l-.15-.29a2.52,2.52,0,0,0-.28-.42l-.13-.14s0,.27.13.67l.06.32Z" style="fill:#fff"/><path d="M109.47,72.19c0-.06,0-.15-.09-.23a2.14,2.14,0,0,1-.09-.27,1.57,1.57,0,0,1-.08-.31,1.65,1.65,0,0,1-.07-.32l0-.17a.91.91,0,0,1,0-.17c0-.11,0-.23,0-.34V70c0-.11,0-.22,0-.32l0-.29a3.58,3.58,0,0,1,0-.45,1.11,1.11,0,0,0,0-.18,1.16,1.16,0,0,0-.11.14.83.83,0,0,0-.11.17,1.57,1.57,0,0,0-.13.23,2.09,2.09,0,0,0-.11.3,1.69,1.69,0,0,0-.09.34c0,.13,0,.26,0,.39a2.67,2.67,0,0,0,0,.4c0,.07,0,.14,0,.2s0,.14,0,.2a1.6,1.6,0,0,0,.12.37,2.39,2.39,0,0,0,.16.32,2,2,0,0,0,.19.26,1.66,1.66,0,0,0,.18.19l.15.13.14.1-.06-.17-.08-.18Z" style="fill:#fff"/><path d="M108.56,66.15a1.06,1.06,0,0,0,0,.19,1.21,1.21,0,0,1,.05.18l.06.17a1,1,0,0,0,.07.15c0,.1.09.18.13.26s.09.13.12.18l.12.14a1.29,1.29,0,0,0,0-.19l0-.21,0-.27a3,3,0,0,1,0-.31c0-.06,0-.12,0-.17s0-.12,0-.18a1.09,1.09,0,0,0,0-.18,1.21,1.21,0,0,0,0-.19c0-.12,0-.25,0-.38s0-.25,0-.38,0-.25,0-.37,0-.24,0-.35a3.11,3.11,0,0,1,0-.32c0-.4.09-.67.09-.67l-.12.14a2.54,2.54,0,0,0-.26.43,2.88,2.88,0,0,0-.13.31c0,.12-.08.24-.12.36l-.09.4c0,.14,0,.28,0,.43a3,3,0,0,0,0,.42,1.84,1.84,0,0,0,0,.41Z" style="fill:#fff"/><path d="M88.46,63.39l.46.18a2.43,2.43,0,0,0,.39.12l.31.07.27.05-.24-.15-.27-.16a3.59,3.59,0,0,1-.35-.21l-.4-.25-.45-.3c-.15-.1-.3-.22-.45-.33L87.27,62c-.14-.13-.29-.25-.43-.39a5,5,0,0,1-.4-.4q-.19-.2-.36-.39l-.16-.2-.15-.18-.24-.33-.18-.27-.15-.24a2.11,2.11,0,0,0,.06.29c0,.08,0,.2.1.31s.11.26.18.41.15.29.25.45l.15.23.17.24c.12.16.26.3.4.46s.3.28.45.43.33.26.5.37l.5.32.5.24Z" style="fill:#fff"/><path d="M81.9,65.39c0,.46.11,1,.19,1.44,0,.24.09.48.15.72s.11.46.18.68.13.44.2.64.13.39.2.56l.2.46.18.34.16.29s0-.12-.07-.33-.05-.23-.09-.37-.06-.31-.1-.49S83,69,83,68.76s-.08-.42-.12-.64-.09-.45-.14-.69-.08-.47-.13-.7L82.46,66q-.06-.36-.12-.69c-.08-.45-.15-.87-.21-1.23s-.11-.66-.15-.87-.07-.33-.07-.33a3.18,3.18,0,0,0,0,.34,7.35,7.35,0,0,0,0,.89c0,.19,0,.39,0,.6s0,.43,0,.66Z" style="fill:#fff"/><path d="M94,72.27a3.67,3.67,0,0,0-.34.45,5.27,5.27,0,0,0-.4.69c-.07.13-.13.27-.19.41s-.11.29-.16.44-.1.3-.14.45-.07.3-.1.44,0,.29-.08.42,0,.26,0,.38,0,.44,0,.58a2,2,0,0,0,0,.22l.09-.2c0-.07,0-.14.08-.23s.07-.19.11-.3.08-.23.13-.35.09-.25.13-.39.1-.27.14-.41l.15-.43c.19-.57.39-1.14.53-1.58.07-.22.13-.41.18-.54l.06-.2a1.64,1.64,0,0,0-.15.15Z" style="fill:#fff"/><path d="M90.75,67.41,91,67s-.12.11-.32.32l-.36.4c-.13.15-.28.33-.43.53s-.32.42-.49.65-.34.49-.51.76l-.26.41-.25.42c-.16.3-.33.59-.48.89l-.23.46-.21.46c-.15.3-.26.62-.38.91a9.18,9.18,0,0,0-.31.87c0,.14-.09.28-.14.41s-.07.27-.1.39-.13.48-.17.68-.08.38-.1.53-.08.47-.08.47.07-.16.17-.44.12-.3.19-.5L86.8,75c.09-.23.2-.48.31-.75l.37-.83c.07-.14.13-.28.2-.43l.21-.44c.07-.15.14-.3.22-.45s.15-.29.23-.44.3-.6.46-.89.31-.57.46-.84.31-.54.45-.78.28-.49.41-.7l.63-1Z" style="fill:#fff"/><path d="M127.56,63.5l-.44.37-.42.32-.39.28-.34.24-.26.17-.23.17.27-.07.31-.09a2.7,2.7,0,0,0,.38-.15,3.58,3.58,0,0,0,.45-.21l.48-.27.49-.35.47-.41c.14-.15.29-.3.42-.46a3.25,3.25,0,0,0,.37-.48,1.75,1.75,0,0,0,.16-.25c.05-.08.1-.16.14-.24a3.92,3.92,0,0,0,.22-.47,2.07,2.07,0,0,0,.15-.41,3.4,3.4,0,0,0,.09-.33c0-.18,0-.29,0-.29l-.13.26c0,.07-.1.17-.17.27s-.14.22-.22.35a1.33,1.33,0,0,1-.14.19c0,.07-.09.14-.15.21l-.33.42c-.11.14-.25.28-.38.42l-.41.42-.43.39Z" style="fill:#fff"/><path d="M132.69,70.66q.09-.21.18-.48c.06-.17.11-.36.17-.57s.11-.41.16-.64.1-.46.14-.7.07-.48.1-.73c.06-.49.09-1,.11-1.44,0-.23,0-.46,0-.67s0-.41,0-.59c0-.37-.05-.68-.08-.89s-.06-.34-.06-.34,0,.12,0,.34-.07.51-.1.88-.09.78-.14,1.23c0,.23-.05.46-.08.7s-.05.48-.08.72l-.09.71q0,.36-.09.69c0,.23-.06.44-.09.65s-.06.4-.09.58-.06.34-.08.49,0,.27-.07.38,0,.34,0,.34l.14-.31c0-.1.1-.21.15-.35Z" style="fill:#fff"/><path d="M123.5,77.34c0-.11,0-.24-.06-.37s-.06-.28-.1-.42-.08-.29-.13-.43-.11-.3-.16-.44-.12-.29-.19-.43l-.21-.4a6.86,6.86,0,0,0-.44-.66,5.07,5.07,0,0,0-.37-.43l-.16-.14.08.2.2.52c.17.43.4,1,.63,1.55,0,.14.11.28.17.41s.11.28.16.41.11.26.16.38.1.23.14.34.09.2.13.29l.1.22.1.2v-.22c0-.14,0-.34,0-.58Z" style="fill:#fff"/><path d="M129.23,76c.1.23.2.44.29.62s.16.36.22.49.2.42.2.42l-.11-.45c0-.15-.08-.33-.13-.53l-.21-.67c0-.12-.09-.25-.13-.38l-.16-.4a8.48,8.48,0,0,0-.36-.84c-.13-.29-.27-.6-.43-.89l-.24-.44-.25-.44c-.17-.3-.36-.58-.54-.86l-.27-.41-.28-.39c-.19-.26-.38-.5-.56-.72s-.35-.44-.52-.62l-.47-.5c-.14-.15-.27-.27-.37-.37a4,4,0,0,0-.34-.31l.26.38.7,1,.45.67.49.75.51.81c.18.28.35.57.52.86l.25.42.24.44c.08.14.17.28.24.42s.15.28.22.42l.42.8.36.73Z" style="fill:#fff"/><text transform="translate(13.67 15.84)" style="font-size:21px;fill:#fff;font-family:Invasion2000">CRYPTO STAKE <tspan x="40.21" y="25.2">BATTLES</tspan><tspan x="144.18" y="25.2" style="font-family:MyriadPro-Regular, Myriad Pro;fill!:#000"> </tspan></text><text transform="translate(30.06 117.84)" style="font-size:21px;fill:#fff;font-family:Invasion2000">SEASSON 0.1:<tspan x="-29.43" y="25.2">CRYPTO PAPAYAS</tspan></text></g></g></svg>